<svg xmlns="http://www.w3.org/2000/svg" x="0px" y="0px" width="239px" height="59px">
<path fill="#F3703A" d="M26.36,27.29c2.46,0,4.46,2,4.46,4.46s-2,4.46-4.46,4.46s-4.46-2-4.46-4.46S23.9,27.29,26.36,27.29z
	 M30,10.33c0-1.32-1.21-1.89-2.34-2c-0.88-0.14-1.77-0.14-2.65,0c-1.13,0.15-2.29,0.73-2.34,2c0,0.42,1.33,7.47,1.77,10.26
	c0.12,0.76,0.23,1.52,0.39,2.28c0.03,0.32,0.16,0.63,0.37,0.88c0.22,0.18,0.51,0.27,0.8,0.25c0.3,0,0.59,0,0.89,0
	c0.23,0.02,0.46-0.06,0.63-0.21c0.2-0.25,0.32-0.55,0.36-0.87c0.15-0.76,0.27-1.52,0.38-2.28C28.69,17.8,30,10.75,30,10.33z"/>
<path fill="#ADBECB" d="M14.66,18.18c-0.56-0.41-1.33-0.33-1.8,0.18c-0.2,0.16-0.39,0.33-0.56,0.52c-0.17,0.19-0.33,0.4-0.47,0.61
	c-0.46,0.52-0.46,1.29,0,1.81c0.18,0.18,1.79,1.36,2.4,1.78c1.37,0.95,2.74,1.88,4.13,2.81c0.38,0.25,0.76,0.51,1.15,0.75
	c0.15,0.11,0.34,0.18,0.53,0.19c0.16-0.03,0.3-0.12,0.39-0.25c0.12-0.12,0.23-0.25,0.34-0.38c0.1-0.09,0.15-0.22,0.15-0.35
	c-0.03-0.18-0.12-0.36-0.24-0.5c-0.27-0.36-0.56-0.72-0.85-1.07c-1.05-1.3-2.1-2.59-3.16-3.87C16.17,19.84,14.85,18.34,14.66,18.18z
	 M41,21.39c0.46-0.52,0.46-1.29,0-1.81c-0.14-0.21-0.3-0.42-0.47-0.61c-0.17-0.19-0.36-0.37-0.56-0.53c-0.46-0.52-1.24-0.6-1.8-0.19
	c-0.19,0.16-1.53,1.65-2,2.22c-1.09,1.27-2.15,2.56-3.17,3.85c-0.29,0.35-0.58,0.7-0.85,1.07c-0.13,0.14-0.21,0.32-0.24,0.51
	c0.02,0.16,0.09,0.31,0.21,0.42l0.35,0.38c0.08,0.1,0.21,0.17,0.34,0.18c0.19-0.02,0.37-0.08,0.52-0.19
	c0.39-0.24,0.77-0.49,1.15-0.74c1.39-0.92,2.78-1.85,4.16-2.79C39.18,22.74,40.81,21.56,41,21.39z M44.08,34.48
	c0.78,0,1.14-0.66,1.25-1.31c0.1-0.5,0.12-1.02,0.05-1.53c-0.07-0.66-0.39-1.34-1.16-1.39c-0.25,0-2.25,0.12-3,0.2
	c-1.65,0.17-3.32,0.36-5,0.55c-0.45,0.05-0.91,0.1-1.36,0.17c-0.19,0.01-0.38,0.08-0.53,0.2c-0.1,0.13-0.15,0.28-0.14,0.44
	c0,0.17,0,0.34,0,0.51c-0.02,0.13,0.03,0.27,0.12,0.37c0.14,0.12,0.32,0.19,0.5,0.22c0.44,0.1,0.9,0.18,1.34,0.27
	c1.64,0.31,3.28,0.6,4.92,0.89C41.84,34.2,43.83,34.48,44.08,34.48z M37.19,46c0.51,0.46,1.3,0.46,1.81,0
	c0.21-0.15,0.4-0.31,0.59-0.48c0.18-0.18,0.35-0.37,0.51-0.58c0.5-0.48,0.56-1.26,0.13-1.81c-0.16-0.18-1.7-1.47-2.28-1.93
	c-1.33-1.03-2.67-2.06-4-3.07c-0.36-0.28-0.72-0.56-1.09-0.82c-0.14-0.12-0.32-0.2-0.51-0.23c-0.16,0.02-0.3,0.1-0.41,0.22
	l-0.36,0.36c-0.1,0.09-0.16,0.21-0.17,0.34c0.02,0.19,0.09,0.36,0.21,0.51c0.25,0.38,0.51,0.75,0.78,1.13
	c0.96,1.33,1.93,2.69,2.92,4.06C35.77,44.28,37,45.87,37.19,46z M24.2,49.54c0,0.78,0.69,1.12,1.35,1.22
	c0.25,0.04,0.51,0.06,0.76,0.07c0.26,0,0.51-0.02,0.77-0.06c0.65-0.09,1.32-0.42,1.35-1.21c0-0.25-0.19-2.24-0.29-3
	c-0.22-1.65-0.45-3.32-0.7-5c-0.07-0.45-0.13-0.9-0.22-1.35c-0.02-0.19-0.09-0.37-0.21-0.52c-0.13-0.1-0.29-0.14-0.45-0.13H26
	c-0.13-0.01-0.26,0.03-0.36,0.12c-0.11,0.15-0.19,0.32-0.21,0.51c-0.09,0.45-0.15,0.9-0.22,1.35c-0.26,1.65-0.51,3.3-0.74,4.95
	C24.4,47.3,24.19,49.3,24.2,49.54z M12.43,43c-0.43,0.54-0.38,1.33,0.12,1.81c0.15,0.2,0.32,0.4,0.5,0.58
	c0.18,0.18,0.38,0.34,0.59,0.49c0.49,0.49,1.28,0.52,1.81,0.08c0.18-0.17,1.42-1.75,1.86-2.34c0.99-1.33,1.97-2.67,2.94-4
	c0.27-0.37,0.53-0.74,0.78-1.12c0.12-0.15,0.19-0.33,0.21-0.52c-0.03-0.16-0.11-0.3-0.23-0.4c-0.12-0.12-0.24-0.24-0.37-0.35
	c-0.09-0.1-0.22-0.16-0.35-0.16c-0.18,0.03-0.36,0.1-0.5,0.22c-0.38,0.26-0.74,0.54-1.1,0.81c-1.33,1.01-2.67,2.01-4,3
	C14.14,41.56,12.59,42.84,12.43,43z M8.51,30.15c-0.78,0-1.1,0.73-1.17,1.38c-0.02,0.26-0.02,0.51,0,0.77
	c0.01,0.26,0.04,0.51,0.09,0.76c0.11,0.65,0.47,1.31,1.25,1.32c0.25,0,2.24-0.27,3-0.39c1.65-0.27,3.29-0.56,4.93-0.86
	c0.45-0.08,0.9-0.16,1.34-0.26c0.19-0.02,0.37-0.1,0.52-0.23c0.09-0.13,0.13-0.29,0.11-0.45c0-0.17,0-0.34,0-0.51
	c0-0.13-0.05-0.26-0.14-0.36c-0.15-0.11-0.33-0.17-0.51-0.19c-0.45-0.07-0.91-0.13-1.36-0.18c-1.65-0.21-3.32-0.4-5-0.58
	C10.76,30.29,8.76,30.14,8.51,30.15z"/>
<path fill="#3F7D95" d="M71.87,41.67h-9.74l10.68-14.78c0.44-0.58,0.69-1.28,0.72-2c0-0.76-0.26-1-0.48-1.17
	c-0.4-0.28-0.87-0.44-1.36-0.45H59.44c-0.43-0.01-0.84,0.16-1.14,0.47c-0.34,0.33-0.51,0.79-0.47,1.26c0,0.89,0.73,1.62,1.62,1.62
	h9.05l-11,15.21c-0.26,0.35-0.39,0.77-0.38,1.2c-0.01,0.28,0.05,0.56,0.17,0.81c0.11,0.23,0.25,0.44,0.44,0.61
	c0.18,0.16,0.39,0.29,0.61,0.39c0.15,0.07,0.31,0.11,0.48,0.12h13c0.44,0.01,0.87-0.17,1.18-0.49c0.32-0.3,0.5-0.74,0.48-1.18
	c0.01-0.43-0.16-0.85-0.48-1.14C72.7,41.85,72.3,41.67,71.87,41.67z M92.7,42.68c0.71-0.77,1.24-1.69,1.56-2.68
	c0.35-1.11,0.53-2.27,0.52-3.44v-4.84c0-1.16-0.17-2.31-0.52-3.42c-0.32-1.01-0.85-1.94-1.56-2.72c-0.76-0.8-1.68-1.43-2.7-1.84
	c-2.59-0.92-5.41-0.92-8,0c-1.02,0.41-1.94,1.04-2.69,1.84c-0.71,0.78-1.24,1.71-1.56,2.72c-0.35,1.11-0.53,2.26-0.52,3.42v4.83
	c0,1.17,0.18,2.34,0.54,3.45c0.32,1,0.85,1.92,1.56,2.7c0.75,0.79,1.66,1.41,2.67,1.82c2.59,0.93,5.41,0.93,8,0
	C91.02,44.11,91.94,43.48,92.7,42.68z M90.7,36.54c0.08,1.34-0.31,2.67-1.09,3.76c-1.98,1.93-5.14,1.93-7.12,0
	c-0.8-1.09-1.2-2.42-1.12-3.77v-4.77c-0.08-1.34,0.31-2.67,1.1-3.76c1.98-1.93,5.14-1.93,7.12,0c0.78,1.09,1.17,2.42,1.09,3.76
	L90.7,36.54z M114.56,42.68c0.71-0.78,1.24-1.7,1.56-2.7c0.35-1.11,0.53-2.27,0.52-3.44v-4.82c0-1.16-0.17-2.31-0.52-3.42
	c-0.32-1.01-0.85-1.94-1.56-2.72c-0.75-0.8-1.67-1.43-2.69-1.84c-2.59-0.92-5.41-0.92-8,0c-1.02,0.41-1.94,1.04-2.69,1.84
	c-0.71,0.78-1.24,1.71-1.56,2.72c-0.35,1.11-0.53,2.26-0.52,3.42v4.83c-0.01,1.17,0.17,2.34,0.53,3.45c0.32,1,0.85,1.92,1.56,2.7
	c0.75,0.8,1.67,1.43,2.69,1.84c2.59,0.93,5.41,0.93,8,0C112.9,44.12,113.81,43.49,114.56,42.68z M112.56,36.54
	c0.08,1.34-0.31,2.67-1.09,3.76c-1.98,1.93-5.14,1.93-7.12,0c-0.8-1.09-1.2-2.42-1.12-3.77v-4.77c-0.08-1.34,0.31-2.67,1.1-3.76
	c1.98-1.93,5.14-1.93,7.12,0c0.78,1.09,1.17,2.42,1.09,3.76L112.56,36.54z M160.14,23c-0.55-0.02-1.09,0.2-1.47,0.6
	c-0.39,0.39-0.61,0.92-0.6,1.47v18.12c-0.02,0.54,0.2,1.07,0.59,1.44c0.39,0.39,0.93,0.61,1.48,0.59c1.1,0,2-0.9,2-2V25.11
	c0.01-0.55-0.21-1.08-0.6-1.47C161.19,23.24,160.68,23,160.14,23z M160.14,19c0.64,0.01,1.25-0.24,1.7-0.69
	c0.93-0.95,0.93-2.46,0-3.41c-0.45-0.45-1.06-0.7-1.7-0.69c-0.65-0.02-1.28,0.23-1.74,0.69c-0.46,0.44-0.71,1.06-0.69,1.7
	c-0.02,0.64,0.23,1.26,0.69,1.7C158.86,18.76,159.49,19.01,160.14,19z M202.94,13.57h-2.19c-2.63,0-4.59,0.7-5.84,2.08
	c-1.37,1.69-2.05,3.83-1.92,6v1.66h-1.71c-0.81-0.01-1.47,0.63-1.48,1.44c0,0.01,0,0.03,0,0.04c-0.01,0.41,0.14,0.8,0.43,1.09
	c0.26,0.28,0.62,0.44,1,0.44H193v16.87c-0.02,0.54,0.2,1.06,0.59,1.44c0.39,0.39,0.93,0.61,1.48,0.59c1.1,0,2-0.9,2-2v-16.9H201
	c0.38,0,0.74-0.16,1-0.44c0.29-0.29,0.45-0.68,0.44-1.09c0.01-0.8-0.64-1.46-1.44-1.47h-3.94v-1.67c-0.11-1.3,0.29-2.58,1.13-3.58
	c0.89-0.83,2.09-1.26,3.31-1.18h1.41c0.44,0.01,0.86-0.17,1.17-0.48c0.33-0.3,0.51-0.73,0.49-1.18c-0.02-0.91-0.75-1.64-1.66-1.66
	H202.94z M221.21,42.68c0.71-0.78,1.24-1.7,1.56-2.7c0.35-1.11,0.53-2.27,0.52-3.44v-4.82c0-1.16-0.17-2.31-0.52-3.42
	c-0.32-1.01-0.85-1.94-1.56-2.72c-0.75-0.8-1.67-1.43-2.69-1.84c-2.59-0.92-5.41-0.92-8,0c-1.02,0.41-1.94,1.04-2.69,1.84
	c-0.71,0.78-1.24,1.71-1.56,2.72c-0.35,1.11-0.53,2.26-0.52,3.42v4.83c-0.01,1.17,0.17,2.33,0.52,3.44c0.32,1,0.85,1.92,1.56,2.7
	c0.75,0.8,1.67,1.43,2.69,1.84c2.59,0.93,5.41,0.93,8,0C219.54,44.12,220.46,43.48,221.21,42.68z M219.21,36.54
	c0.08,1.34-0.31,2.67-1.1,3.76c-1.98,1.93-5.14,1.93-7.12,0c-0.81-1.08-1.21-2.42-1.13-3.77v-4.77c-0.07-1.35,0.33-2.68,1.14-3.76
	c1.98-1.93,5.14-1.93,7.12,0c0.79,1.09,1.17,2.42,1.1,3.76L219.21,36.54z M185.38,27.36c-0.19-0.84-0.57-1.63-1.1-2.3
	c-0.54-0.64-1.22-1.14-2-1.46c-1.03-0.4-2.13-0.59-3.23-0.55c-1.21-0.03-2.42,0.17-3.56,0.57c-0.95,0.35-1.83,0.89-2.58,1.57
	l-0.35,0.32v-0.64c0.02-0.54-0.2-1.06-0.59-1.44c-0.39-0.39-0.93-0.61-1.48-0.59c-1.1,0-2,0.9-2,2v4.32l0,0v14
	c-0.02,0.54,0.2,1.07,0.59,1.44c0.39,0.39,0.93,0.61,1.48,0.59c1.1,0,2-0.9,2-2V29.33l0.2-0.27c1.07-1.46,2.79-2.31,4.6-2.28
	c0.71-0.02,1.42,0.11,2.07,0.39c0.55,0.24,1.03,0.63,1.38,1.11c0.32,0.46,0.54,0.97,0.65,1.52c0.11,0.51,0.16,1.03,0.16,1.55v11.84
	c0,1.1,0.9,2,2,2c0.55,0.01,1.08-0.21,1.47-0.6c0.4-0.37,0.62-0.89,0.6-1.43V30.62C185.71,29.52,185.61,28.43,185.38,27.36z
	 M150.78,25c-0.51-0.63-1.18-1.12-1.94-1.42c-1.02-0.39-2.11-0.57-3.2-0.53c-1.24-0.03-2.48,0.18-3.65,0.61
	c-0.96,0.37-1.82,0.94-2.54,1.67l-0.84,0.87l-0.72-1c-0.52-0.7-1.21-1.25-2-1.6c-1.05-0.43-2.17-0.62-3.3-0.58
	c-1.19-0.02-2.38,0.17-3.51,0.57c-0.94,0.34-1.8,0.86-2.54,1.52l-0.91,0.84c-0.2-0.5-0.51-0.95-0.92-1.3
	c-0.74-0.79-1.77-1.26-2.85-1.31c-1,0-2,0.4-1.94,1.49c0,0.86,1,1.44,1.51,2c0.5,0.66,0.74,1.49,0.67,2.32v14
	c-0.02,0.54,0.2,1.06,0.59,1.44c0.39,0.4,0.93,0.61,1.49,0.59c1.1,0,2-0.9,2-2v-14l0.22-0.28c0.51-0.66,1.16-1.2,1.91-1.58
	c0.8-0.4,1.69-0.6,2.58-0.59c0.71-0.02,1.41,0.11,2.06,0.4c0.54,0.25,1,0.62,1.35,1.1c0.34,0.47,0.58,1,0.7,1.57
	c0.11,0.51,0.16,1.03,0.16,1.55v11.84c0,1.1,0.9,2,2,2c0.55,0.01,1.08-0.21,1.47-0.6c0.4-0.37,0.62-0.89,0.6-1.43V29.34
	c0.36-0.63,0.87-1.16,1.47-1.57c0.17-0.12,0.35-0.24,0.53-0.34c0.83-0.45,1.77-0.67,2.71-0.65c0.71-0.02,1.41,0.11,2.06,0.4
	c0.53,0.25,0.99,0.62,1.34,1.1c0.33,0.47,0.54,1,0.63,1.56c0.09,0.5,0.13,1.01,0.13,1.52v11.83c-0.02,0.54,0.2,1.07,0.59,1.44
	c0.39,0.39,0.93,0.61,1.48,0.59c1.1,0,2-0.9,2-2V30.58c0.01-1.1-0.11-2.19-0.36-3.26C151.64,26.48,151.29,25.69,150.78,25z
	 M231.7,42.69c0,1.44-1.16,2.61-2.61,2.61c-0.93,0-1.8-0.5-2.26-1.3c-0.23-0.39-0.35-0.84-0.35-1.3c0-0.46,0.12-0.91,0.35-1.31
	c0.23-0.42,0.58-0.77,1-1c1.26-0.72,2.86-0.28,3.57,0.97c0.22,0.39,0.34,0.83,0.35,1.29 M231.39,42.65c0.01-0.82-0.41-1.58-1.12-2
	c-0.34-0.2-0.73-0.3-1.12-0.3c-0.4,0-0.79,0.1-1.13,0.3c-0.35,0.2-0.63,0.48-0.83,0.83c-0.2,0.34-0.3,0.73-0.3,1.13
	c-0.07,1.25,0.88,2.31,2.13,2.39c0.03,0,0.06,0,0.08,0c0.39,0,0.78-0.11,1.12-0.31c0.71-0.41,1.14-1.18,1.12-2 M228,41.17h1.25
	c0.21-0.01,0.43,0.02,0.63,0.09c0.13,0.06,0.24,0.16,0.31,0.29c0.08,0.14,0.12,0.3,0.12,0.46c0,0.14-0.03,0.28-0.09,0.4
	c-0.07,0.11-0.17,0.2-0.29,0.27c0.11,0.05,0.21,0.13,0.27,0.23c0.06,0.14,0.08,0.3,0.07,0.45v0.34c-0.01,0.14,0.03,0.28,0.11,0.4
	v0.08h-0.53c-0.04-0.14-0.06-0.29-0.07-0.44v-0.37c0-0.1-0.02-0.2-0.06-0.29c-0.03-0.06-0.09-0.1-0.15-0.12
	c-0.13-0.02-0.25-0.02-0.38,0h-0.75v1.26H228V41.17z M228.47,41.6v0.89h0.74c0.16,0.01,0.32-0.01,0.46-0.08
	c0.12-0.08,0.19-0.22,0.18-0.37c0.01-0.13-0.04-0.25-0.13-0.34c-0.14-0.09-0.31-0.13-0.48-0.11L228.47,41.6z"/>
</svg>
